<svg width="38" height="38" viewBox="0 0 38 38" fill="none" xmlns="http://www.w3.org/2000/svg">
<path d="M19.1697 14.4667C16.5682 14.4667 14.4698 16.5656 14.4698 19.1677C14.4698 21.7698 16.5682 23.8687 19.1697 23.8687C21.7713 23.8687 23.8697 21.7698 23.8697 19.1677C23.8697 16.5656 21.7713 14.4667 19.1697 14.4667ZM19.1697 22.2239C17.4886 22.2239 16.1142 20.8533 16.1142 19.1677C16.1142 17.4821 17.4845 16.1115 19.1697 16.1115C20.855 16.1115 22.2253 17.4821 22.2253 19.1677C22.2253 20.8533 20.8509 22.2239 19.1697 22.2239ZM25.1582 14.2744C25.1582 14.8841 24.6673 15.3709 24.0619 15.3709C23.4524 15.3709 22.9657 14.88 22.9657 14.2744C22.9657 13.6689 23.4565 13.178 24.0619 13.178C24.6673 13.178 25.1582 13.6689 25.1582 14.2744ZM28.271 15.3873C28.2014 13.9185 27.866 12.6174 26.7902 11.5455C25.7185 10.4736 24.4178 10.1381 22.9493 10.0644C21.4359 9.97852 16.8996 9.97852 15.3861 10.0644C13.9217 10.134 12.621 10.4695 11.5452 11.5414C10.4694 12.6134 10.1381 13.9144 10.0644 15.3832C9.97853 16.897 9.97853 21.4343 10.0644 22.9481C10.134 24.4169 10.4694 25.718 11.5452 26.7899C12.621 27.8618 13.9176 28.1973 15.3861 28.271C16.8996 28.3569 21.4359 28.3569 22.9493 28.271C24.4178 28.2014 25.7185 27.8659 26.7902 26.7899C27.8619 25.718 28.1974 24.4169 28.271 22.9481C28.3569 21.4343 28.3569 16.9011 28.271 15.3873ZM26.3158 24.5724C25.9967 25.3743 25.379 25.9921 24.5732 26.3153C23.3665 26.794 20.5032 26.6835 19.1697 26.6835C17.8363 26.6835 14.9689 26.7899 13.7663 26.3153C12.9645 25.9962 12.3469 25.3784 12.0237 24.5724C11.5452 23.3654 11.6556 20.5015 11.6556 19.1677C11.6556 17.8339 11.5493 14.9659 12.0237 13.763C12.3428 12.9611 12.9605 12.3433 13.7663 12.0201C14.973 11.5414 17.8363 11.6519 19.1697 11.6519C20.5032 11.6519 23.3706 11.5455 24.5732 12.0201C25.3749 12.3392 25.9926 12.957 26.3158 13.763C26.7943 14.97 26.6839 17.8339 26.6839 19.1677C26.6839 20.5015 26.7943 23.3695 26.3158 24.5724Z" fill="#262626"/>
<circle cx="19" cy="19" r="18.5" stroke="black"/>
</svg>
