<svg width="188" height="39" viewBox="0 0 188 39" fill="none" xmlns="http://www.w3.org/2000/svg">
<rect x="0.5" y="0.5" width="187" height="35" stroke="#262626"/>
<path d="M41.959 26.198C40.7857 26.198 39.627 26.044 38.483 25.736C37.339 25.428 36.4077 25.01 35.689 24.482L36.987 21.556C37.7497 22.04 38.5563 22.414 39.407 22.678C40.2723 22.9273 41.1377 23.052 42.003 23.052C42.883 23.052 43.5577 22.9347 44.027 22.7C44.4963 22.4507 44.731 22.106 44.731 21.666C44.731 21.27 44.5183 20.9473 44.093 20.698C43.6677 20.434 42.8683 20.1773 41.695 19.928C40.2137 19.6347 39.0623 19.2753 38.241 18.85C37.4197 18.41 36.8403 17.8967 36.503 17.31C36.1803 16.7233 36.019 16.012 36.019 15.176C36.019 14.2227 36.2903 13.3647 36.833 12.602C37.3757 11.8247 38.1383 11.2233 39.121 10.798C40.1037 10.358 41.2257 10.138 42.487 10.138C43.6163 10.138 44.709 10.2993 45.765 10.622C46.8357 10.93 47.6717 11.3407 48.273 11.854L46.997 14.78C46.3077 14.296 45.5817 13.9293 44.819 13.68C44.0563 13.416 43.2937 13.284 42.531 13.284C41.783 13.284 41.1817 13.4307 40.727 13.724C40.2723 14.0027 40.045 14.384 40.045 14.868C40.045 15.132 40.1257 15.352 40.287 15.528C40.4483 15.704 40.749 15.88 41.189 16.056C41.629 16.2173 42.289 16.3933 43.169 16.584C44.5917 16.892 45.7063 17.266 46.513 17.706C47.3343 18.1313 47.9137 18.6373 48.251 19.224C48.5883 19.796 48.757 20.4853 48.757 21.292C48.757 22.8173 48.163 24.02 46.975 24.9C45.787 25.7653 44.115 26.198 41.959 26.198ZM57.9503 26.198C55.6623 26.198 53.9316 25.626 52.7583 24.482C51.5849 23.3233 50.9983 21.6293 50.9983 19.4V10.336H55.0243V19.554C55.0243 20.6833 55.2736 21.5487 55.7723 22.15C56.2856 22.7513 57.0116 23.052 57.9503 23.052C58.8743 23.052 59.5856 22.7513 60.0843 22.15C60.5829 21.534 60.8323 20.6687 60.8323 19.554V10.336H64.9023V19.4C64.9023 21.6 64.3009 23.2867 63.0983 24.46C61.9103 25.6187 60.1943 26.198 57.9503 26.198ZM78.0598 22.766H71.1078L69.7218 26H65.5858L72.9118 10.336H76.1678L83.5158 26H79.4458L78.0598 22.766ZM76.7178 19.664L74.5838 14.714L72.4498 19.664H76.7178ZM90.7889 10.336H94.9249V22.656H101.547V26H90.7889V10.336ZM110.063 26.198C108.465 26.198 107.071 25.8753 105.883 25.23C104.695 24.57 103.779 23.6313 103.133 22.414C102.503 21.1967 102.187 19.774 102.187 18.146C102.187 16.518 102.51 15.1027 103.155 13.9C103.801 12.6973 104.71 11.7733 105.883 11.128C107.071 10.468 108.465 10.138 110.063 10.138C111.662 10.138 113.048 10.468 114.221 11.128C115.409 11.7733 116.319 12.6973 116.949 13.9C117.58 15.1027 117.895 16.518 117.895 18.146C117.895 19.774 117.58 21.1967 116.949 22.414C116.319 23.6313 115.409 24.57 114.221 25.23C113.048 25.8753 111.662 26.198 110.063 26.198ZM110.063 23.052C111.237 23.052 112.153 22.634 112.813 21.798C113.488 20.962 113.825 19.7447 113.825 18.146C113.825 16.562 113.488 15.3593 112.813 14.538C112.153 13.702 111.237 13.284 110.063 13.284C108.89 13.284 107.973 13.6947 107.313 14.516C106.653 15.3373 106.323 16.5473 106.323 18.146C106.323 19.7593 106.653 20.984 107.313 21.82C107.973 22.6413 108.89 23.052 110.063 23.052ZM134.212 17.156V25.01C133.376 25.3913 132.438 25.6847 131.396 25.89C130.37 26.0953 129.314 26.198 128.228 26.198C126.527 26.198 125.046 25.8753 123.784 25.23C122.538 24.5847 121.577 23.6607 120.902 22.458C120.228 21.2407 119.89 19.8033 119.89 18.146C119.89 16.5327 120.228 15.1247 120.902 13.922C121.577 12.7047 122.53 11.7733 123.762 11.128C124.994 10.468 126.432 10.138 128.074 10.138C129.204 10.138 130.267 10.2847 131.264 10.578C132.276 10.8713 133.098 11.2747 133.728 11.788L132.43 14.714C131.712 14.2447 131.015 13.9073 130.34 13.702C129.68 13.482 128.969 13.372 128.206 13.372C126.813 13.372 125.772 13.768 125.082 14.56C124.408 15.3373 124.07 16.5327 124.07 18.146C124.07 19.818 124.422 21.0573 125.126 21.864C125.845 22.6707 126.945 23.074 128.426 23.074C129.116 23.074 129.805 23.0007 130.494 22.854V19.95H127.766V17.156H134.212ZM144.288 26.198C142.689 26.198 141.296 25.8753 140.108 25.23C138.92 24.57 138.003 23.6313 137.358 22.414C136.727 21.1967 136.412 19.774 136.412 18.146C136.412 16.518 136.735 15.1027 137.38 13.9C138.025 12.6973 138.935 11.7733 140.108 11.128C141.296 10.468 142.689 10.138 144.288 10.138C145.887 10.138 147.273 10.468 148.446 11.128C149.634 11.7733 150.543 12.6973 151.174 13.9C151.805 15.1027 152.12 16.518 152.12 18.146C152.12 19.774 151.805 21.1967 151.174 22.414C150.543 23.6313 149.634 24.57 148.446 25.23C147.273 25.8753 145.887 26.198 144.288 26.198ZM144.288 23.052C145.461 23.052 146.378 22.634 147.038 21.798C147.713 20.962 148.05 19.7447 148.05 18.146C148.05 16.562 147.713 15.3593 147.038 14.538C146.378 13.702 145.461 13.284 144.288 13.284C143.115 13.284 142.198 13.6947 141.538 14.516C140.878 15.3373 140.548 16.5473 140.548 18.146C140.548 19.7593 140.878 20.984 141.538 21.82C142.198 22.6413 143.115 23.052 144.288 23.052Z" fill="#262626"/>
</svg>
