<svg width="104" height="23" viewBox="0 0 104 23" fill="none" xmlns="http://www.w3.org/2000/svg">
<rect x="0.5" y="0.5" width="103" height="22" stroke="white"/>
<path d="M18.883 17.126C18.1363 17.126 17.399 17.028 16.671 16.832C15.943 16.636 15.3503 16.37 14.893 16.034L15.719 14.172C16.2043 14.48 16.7177 14.718 17.259 14.886C17.8097 15.0447 18.3603 15.124 18.911 15.124C19.471 15.124 19.9003 15.0493 20.199 14.9C20.4977 14.7413 20.647 14.522 20.647 14.242C20.647 13.99 20.5117 13.7847 20.241 13.626C19.9703 13.458 19.4617 13.2947 18.715 13.136C17.7723 12.9493 17.0397 12.7207 16.517 12.45C15.9943 12.17 15.6257 11.8433 15.411 11.47C15.2057 11.0967 15.103 10.644 15.103 10.112C15.103 9.50533 15.2757 8.95933 15.621 8.474C15.9663 7.97933 16.4517 7.59667 17.077 7.326C17.7023 7.046 18.4163 6.906 19.219 6.906C19.9377 6.906 20.633 7.00867 21.305 7.214C21.9863 7.41 22.5183 7.67133 22.901 7.998L22.089 9.86C21.6503 9.552 21.1883 9.31867 20.703 9.16C20.2177 8.992 19.7323 8.908 19.247 8.908C18.771 8.908 18.3883 9.00133 18.099 9.188C17.8097 9.36533 17.665 9.608 17.665 9.916C17.665 10.084 17.7163 10.224 17.819 10.336C17.9217 10.448 18.113 10.56 18.393 10.672C18.673 10.7747 19.093 10.8867 19.653 11.008C20.5583 11.204 21.2677 11.442 21.781 11.722C22.3037 11.9927 22.6723 12.3147 22.887 12.688C23.1017 13.052 23.209 13.4907 23.209 14.004C23.209 14.9747 22.831 15.74 22.075 16.3C21.319 16.8507 20.255 17.126 18.883 17.126ZM29.0593 17.126C27.6033 17.126 26.5019 16.762 25.7553 16.034C25.0086 15.2967 24.6353 14.2187 24.6353 12.8V7.032H27.1973V12.898C27.1973 13.6167 27.3559 14.1673 27.6733 14.55C27.9999 14.9327 28.4619 15.124 29.0593 15.124C29.6473 15.124 30.0999 14.9327 30.4173 14.55C30.7346 14.158 30.8933 13.6073 30.8933 12.898V7.032H33.4833V12.8C33.4833 14.2 33.1006 15.2733 32.3353 16.02C31.5793 16.7573 30.4873 17.126 29.0593 17.126ZM41.8562 14.942H37.4322L36.5502 17H33.9182L38.5802 7.032H40.6522L45.3282 17H42.7382L41.8562 14.942ZM41.0022 12.968L39.6442 9.818L38.2862 12.968H41.0022ZM49.9565 7.032H52.5885V14.872H56.8025V17H49.9565V7.032ZM62.2221 17.126C61.2047 17.126 60.3181 16.9207 59.5621 16.51C58.8061 16.09 58.2227 15.4927 57.8121 14.718C57.4107 13.9433 57.2101 13.038 57.2101 12.002C57.2101 10.966 57.4154 10.0653 57.8261 9.3C58.2367 8.53467 58.8154 7.94667 59.5621 7.536C60.3181 7.116 61.2047 6.906 62.2221 6.906C63.2394 6.906 64.1214 7.116 64.8681 7.536C65.6241 7.94667 66.2027 8.53467 66.6041 9.3C67.0054 10.0653 67.2061 10.966 67.2061 12.002C67.2061 13.038 67.0054 13.9433 66.6041 14.718C66.2027 15.4927 65.6241 16.09 64.8681 16.51C64.1214 16.9207 63.2394 17.126 62.2221 17.126ZM62.2221 15.124C62.9687 15.124 63.5521 14.858 63.9721 14.326C64.4014 13.794 64.6161 13.0193 64.6161 12.002C64.6161 10.994 64.4014 10.2287 63.9721 9.706C63.5521 9.174 62.9687 8.908 62.2221 8.908C61.4754 8.908 60.8921 9.16933 60.4721 9.692C60.0521 10.2147 59.8421 10.9847 59.8421 12.002C59.8421 13.0287 60.0521 13.808 60.4721 14.34C60.8921 14.8627 61.4754 15.124 62.2221 15.124ZM77.5897 11.372V16.37C77.0577 16.6127 76.4604 16.7993 75.7977 16.93C75.1444 17.0607 74.4724 17.126 73.7817 17.126C72.699 17.126 71.7564 16.9207 70.9537 16.51C70.1604 16.0993 69.549 15.5113 69.1197 14.746C68.6904 13.9713 68.4757 13.0567 68.4757 12.002C68.4757 10.9753 68.6904 10.0793 69.1197 9.314C69.549 8.53933 70.1557 7.94667 70.9397 7.536C71.7237 7.116 72.6384 6.906 73.6837 6.906C74.4024 6.906 75.079 6.99933 75.7137 7.186C76.3577 7.37267 76.8804 7.62933 77.2817 7.956L76.4557 9.818C75.9984 9.51933 75.555 9.30467 75.1257 9.174C74.7057 9.034 74.253 8.964 73.7677 8.964C72.881 8.964 72.2184 9.216 71.7797 9.72C71.3504 10.2147 71.1357 10.9753 71.1357 12.002C71.1357 13.066 71.3597 13.8547 71.8077 14.368C72.265 14.8813 72.965 15.138 73.9077 15.138C74.3464 15.138 74.785 15.0913 75.2237 14.998V13.15H73.4877V11.372H77.5897ZM84.0014 17.126C82.984 17.126 82.0974 16.9207 81.3414 16.51C80.5854 16.09 80.002 15.4927 79.5914 14.718C79.19 13.9433 78.9894 13.038 78.9894 12.002C78.9894 10.966 79.1947 10.0653 79.6054 9.3C80.016 8.53467 80.5947 7.94667 81.3414 7.536C82.0974 7.116 82.984 6.906 84.0014 6.906C85.0187 6.906 85.9007 7.116 86.6474 7.536C87.4034 7.94667 87.982 8.53467 88.3834 9.3C88.7847 10.0653 88.9854 10.966 88.9854 12.002C88.9854 13.038 88.7847 13.9433 88.3834 14.718C87.982 15.4927 87.4034 16.09 86.6474 16.51C85.9007 16.9207 85.0187 17.126 84.0014 17.126ZM84.0014 15.124C84.748 15.124 85.3314 14.858 85.7514 14.326C86.1807 13.794 86.3954 13.0193 86.3954 12.002C86.3954 10.994 86.1807 10.2287 85.7514 9.706C85.3314 9.174 84.748 8.908 84.0014 8.908C83.2547 8.908 82.6714 9.16933 82.2514 9.692C81.8314 10.2147 81.6214 10.9847 81.6214 12.002C81.6214 13.0287 81.8314 13.808 82.2514 14.34C82.6714 14.8627 83.2547 15.124 84.0014 15.124Z" fill="white"/>
</svg>
