<svg width="38" height="38" viewBox="0 0 38 38" fill="none" xmlns="http://www.w3.org/2000/svg">
<path d="M28.6062 15.1279C28.3895 14.3123 27.7509 13.67 26.9401 13.452C25.4705 13.0559 19.5776 13.0559 19.5776 13.0559C19.5776 13.0559 13.6848 13.0559 12.2151 13.452C11.4043 13.67 10.7658 14.3123 10.5491 15.1279C10.1553 16.6061 10.1553 19.6904 10.1553 19.6904C10.1553 19.6904 10.1553 22.7747 10.5491 24.2529C10.7658 25.0685 11.4043 25.6841 12.2151 25.9021C13.6848 26.2981 19.5776 26.2981 19.5776 26.2981C19.5776 26.2981 25.4705 26.2981 26.9401 25.9021C27.7509 25.6841 28.3895 25.0685 28.6062 24.2529C29 22.7747 29 19.6904 29 19.6904C29 19.6904 29 16.6061 28.6062 15.1279ZM17.6503 22.4907V16.8901L22.5756 19.6905L17.6503 22.4907Z" fill="white"/>
<circle cx="19" cy="19" r="18.5" stroke="white"/>
</svg>
